<svg xmlns="http://www.w3.org/2000/svg" xmlns:xlink="http://www.w3.org/1999/xlink" width="16" height="14.001" viewBox="0 0 16 14.001"><defs><style>.a{fill:none;}.b{clip-path:url(#a);}.c{fill:#343638;}</style><clipPath id="a"><rect class="a" width="16" height="14.001"/></clipPath></defs><g class="b"><path class="c" d="M-6407-6020a1,1,0,0,1-1-1,1,1,0,0,1,1-1h14a1,1,0,0,1,1,1,1,1,0,0,1-1,1Zm0-6a1,1,0,0,1-1-1,1,1,0,0,1,1-1h8a1,1,0,0,1,1,1,1,1,0,0,1-1,1Zm0-6a1,1,0,0,1-1-1,1,1,0,0,1,1-1h14a1,1,0,0,1,1,1,1,1,0,0,1-1,1Z" transform="translate(6408 6034)"/></g></svg>